<?xml version="1.0" encoding="UTF-8" standalone="no"?>
<svg xmlns="http://www.w3.org/2000/svg" xmlns:xlink="http://www.w3.org/1999/xlink" xmlns:serif="http://www.serif.com/" width="100%" height="100%" viewBox="0 0 1233 1718" version="1.1" xml:space="preserve" style="fill-rule:evenodd;clip-rule:evenodd;stroke-linejoin:round;stroke-miterlimit:1.5;">
    <g transform="matrix(1,0,0,1,-118.268,-484.252)">
        <g transform="matrix(1.04184,0,0,1,-3760.67,65.3753)">
            <g transform="matrix(1.39806,0,0,1.45655,2507.13,-30.0681)">
                <g transform="matrix(1.24794e-16,-0.339935,-1,-1.09248e-16,2571.7,1042.43)">
                    <rect x="390.284" y="1244.79" width="355.588" height="64.203" style="fill:rgb(212,212,212);"/>
                </g>
                <g transform="matrix(7.54111e-16,-1.51089,-7.14038,-1.77588e-15,10411.7,1435.16)">
                    <path d="M745.872,1264.05C745.872,1253.42 705.085,1244.79 654.846,1244.79L481.311,1244.79C431.072,1244.79 390.284,1253.42 390.284,1264.05L390.284,1289.74C390.284,1300.37 431.072,1309 481.311,1309L654.846,1309C705.085,1309 745.872,1300.37 745.872,1289.74L745.872,1264.05Z" style="fill:rgb(212,212,212);"/>
                </g>
                <g transform="matrix(0.686552,0,0,0.686552,210.865,-137.221)">
                    <g transform="matrix(1,0,0,1,-122.289,322.915)">
                        <path d="M2031.7,1358.84C2138.28,1358.84 2213.73,1348.65 2213.73,1226.39L2213.73,959.838" style="fill:none;stroke:rgb(212,212,212);stroke-width:93.75px;"/>
                    </g>
                    <g transform="matrix(1,0,0,1,1122.46,108.923)">
                        <path d="M1056.65,1133.49C1065.45,1123.8 1070.09,1112.79 1070.09,1101.59C1070.09,1066.38 1025.16,1037.79 969.823,1037.79C914.487,1037.79 869.561,1066.38 869.561,1101.59C869.561,1112.79 874.194,1123.8 882.994,1133.49L1056.65,1133.49Z" style="fill:rgb(212,212,212);"/>
                    </g>
                </g>
                <g transform="matrix(-0.686552,0,0,0.686552,2375.09,-137.221)">
                    <g transform="matrix(1,0,0,1,-122.289,322.915)">
                        <path d="M2031.7,1358.84C2138.28,1358.84 2213.73,1348.65 2213.73,1226.39L2213.73,959.838" style="fill:none;stroke:rgb(212,212,212);stroke-width:93.75px;"/>
                    </g>
                    <g transform="matrix(1,0,0,1,1122.46,108.923)">
                        <path d="M1056.65,1133.49C1065.45,1123.8 1070.09,1112.79 1070.09,1101.59C1070.09,1066.38 1025.16,1037.79 969.823,1037.79C914.487,1037.79 869.561,1066.38 869.561,1101.59C869.561,1112.79 874.194,1123.8 882.994,1133.49L1056.65,1133.49Z" style="fill:rgb(212,212,212);"/>
                    </g>
                </g>
                <g>
                    <g transform="matrix(1.63044,0,0,1.63044,-647.255,-811.039)">
                        <circle cx="1088.27" cy="1348.06" r="61.587" style="fill:rgb(45,28,28);"/>
                    </g>
                    <g transform="matrix(0.417292,-0.417292,0.707107,0.707107,103.137,603.649)">
                        <rect x="390.284" y="1244.79" width="355.588" height="64.203" style="fill:rgb(45,28,28);"/>
                    </g>
                    <g transform="matrix(-1.63044,0,0,1.63044,3236.67,-811.039)">
                        <circle cx="1088.27" cy="1348.06" r="61.587" style="fill:rgb(45,28,28);"/>
                    </g>
                    <g transform="matrix(-0.417292,-0.417292,-0.707107,0.707107,2486.28,603.649)">
                        <rect x="390.284" y="1244.79" width="355.588" height="64.203" style="fill:rgb(45,28,28);"/>
                    </g>
                    <g transform="matrix(5.79429e-19,-0.313873,-1,1.79203e-18,2571.63,1355.26)">
                        <rect x="390.284" y="1244.79" width="355.588" height="64.203" style="fill:rgb(45,28,28);"/>
                    </g>
                    <g transform="matrix(-1.51089,-4.81309e-17,-2.86128e-16,2.43102,2152.86,-2088.81)">
                        <path d="M745.872,1276.89C745.872,1259.18 722.728,1244.79 694.221,1244.79L441.936,1244.79C413.429,1244.79 390.284,1259.18 390.284,1276.89C390.284,1294.61 413.429,1309 441.936,1309L694.221,1309C722.728,1309 745.872,1294.61 745.872,1276.89Z" style="fill:rgb(45,28,28);"/>
                    </g>
                </g>
                <g transform="matrix(2.24322e-17,0.315454,0.855335,-4.45555e-17,965.208,346.698)">
                    <path d="M2534.12,815.668L2534.12,849.418L2393.33,797.495L2534.12,745.572L2534.12,779.322L3473.13,779.322L3473.13,745.572L3613.91,797.495L3473.13,849.418L3473.13,815.668L2534.12,815.668Z" style="fill:rgb(45,28,28);"/>
                </g>
            </g>
        </g>
    </g>
</svg>