<svg width="116" height="130" viewBox="0 0 116 130" fill="none" xmlns="http://www.w3.org/2000/svg">
<path d="M115.998 130H30.224C24.2318 124.936 12.197 110.525 6.68108 100.008C1.3073 89.7623 -3.82997 75.975 4.0419 69.84C11.5704 63.9726 24.5663 62.2725 41.2812 62.6153C57.996 62.9581 67.9334 64.6722 73.2118 62.6153C78.4902 60.5584 80.9183 54.2028 82.2379 46.318C83.5575 38.4332 82.0452 18.4919 87.7539 10.4834C94.1105 1.56588 104.319 -2.84274 111 3C107 10.4834 104.996 28.4833 106.5 39C107.82 48.2245 115.998 65.7933 108.313 77.4785C101.814 87.362 92.6627 85.5496 84.7452 85.2068C76.8276 84.864 42.4298 85.0654 44.6291 92.6074C46.8284 100.149 77.118 98.402 94.2727 106.63C109.274 113.824 116.144 125.658 115.998 130Z" fill="#CF8454"/>
</svg>
